# xmcd
#
# Track frame offsets:
#	150
#	12110
#	23451
#	38443
#	48970
#	63375
#	77316
#	91223
#	108431
#	119974
#	131481
#	143982
#	154463
#	168587
#	181872
#	197630
#
# Disc length: 2821 seconds
# Revision: 0
# Processed by: cddbd v1.5.2PL0 Copyright (c) Steve Scherf et al.
# Submitted via: dBpowerAMP V12.0
#
DISCID=c90b0310
DTITLE=Thys Die Bosveldklong - Op Veiling CD 2
DYEAR=1900
DGENRE=
TTITLE0=Auctioneer Song
TTITLE1=Grandma's Featherbed
TTITLE2=Oh Lord it's Hard To Be Humble
TTITLE3=Put Another Log On The Fire
TTITLE4=Mama Don't Let Your Babies
TTITLE5=I'm My Own Grandpa
TTITLE6=Die Verenigingsdans
TTITLE7=A Boy Named Sue
TTITLE8=Down South In New Orleans
TTITLE9=The Laughing Policeman
TTITLE10=Blou-oog Girl van Randfontein
TTITLE11=Hello Mary Lou
TTITLE12=Thank God I'm a Country Boy
TTITLE13=Best of All Possible Worlds
TTITLE14=Bye Bye Bokkie
TTITLE15=Gee Vir My 'n Bietjie Country
EXTD=
EXTT0=
EXTT1=
EXTT2=
EXTT3=
EXTT4=
EXTT5=
EXTT6=
EXTT7=
EXTT8=
EXTT9=
EXTT10=
EXTT11=
EXTT12=
EXTT13=
EXTT14=
EXTT15=
PLAYORDER=
